HIERARCHY
ROOT Hips
{
	OFFSET -0.001795 -0.223333 0.028219
	CHANNELS 6 Xposition Yposition Zposition Zrotation Yrotation Xrotation 
	JOINT LeftUpLeg
	{
		OFFSET 0.069520 -0.091406 -0.006815
		CHANNELS 3 Zrotation Yrotation Xrotation
		JOINT LeftLeg
		{
			OFFSET 0.034277 -0.375199 -0.004496
			CHANNELS 3 Zrotation Yrotation Xrotation
			JOINT LeftFoot
			{
				OFFSET -0.013596 -0.397961 -0.043693
				CHANNELS 3 Zrotation Yrotation Xrotation
				JOINT LeftToe
				{
					OFFSET 0.026358 -0.055791 0.119288
					CHANNELS 3 Zrotation Yrotation Xrotation
					End Site
					{
						OFFSET 0.000000 0.000000 0.000000
					}
				}
			}
		}
	}
	JOINT RightUpLeg
	{
		OFFSET -0.067670 -0.090522 -0.004320
		CHANNELS 3 Zrotation Yrotation Xrotation
		JOINT RightLeg
		{
			OFFSET -0.038290 -0.382569 -0.008850
			CHANNELS 3 Zrotation Yrotation Xrotation
			JOINT RightFoot
			{
				OFFSET 0.015774 -0.398415 -0.042312
				CHANNELS 3 Zrotation Yrotation Xrotation
				JOINT RightToe
				{
					OFFSET -0.025372 -0.048144 0.123348
					CHANNELS 3 Zrotation Yrotation Xrotation
					End Site
					{
						OFFSET 0.000000 0.000000 0.000000
					}
				}
			}
		}
	}
	JOINT Spine
	{
		OFFSET -0.002533 0.108963 -0.026696
		CHANNELS 3 Zrotation Yrotation Xrotation
		JOINT Spine1
		{
			OFFSET 0.005487 0.135180 0.001092
			CHANNELS 3 Zrotation Yrotation Xrotation
			JOINT Spine2
			{
				OFFSET 0.001457 0.052922 0.025425
				CHANNELS 3 Zrotation Yrotation Xrotation
				JOINT Neck
				{
					OFFSET -0.002778 0.213870 -0.042857
					CHANNELS 3 Zrotation Yrotation Xrotation
					JOINT Head
					{
						OFFSET 0.005152 0.064970 0.051349
						CHANNELS 3 Zrotation Yrotation Xrotation
						End Site
						{
							OFFSET 0.000000 0.000000 0.000000
						}
					}
				}
				JOINT LeftShoulder
				{
					OFFSET 0.078845 0.121749 -0.034090
					CHANNELS 3 Zrotation Yrotation Xrotation
					JOINT LeftArm
					{
						OFFSET 0.090977 0.030469 -0.008868
						CHANNELS 3 Zrotation Yrotation Xrotation
						JOINT LeftForeArm
						{
							OFFSET 0.259612 -0.012772 -0.027456
							CHANNELS 3 Zrotation Yrotation Xrotation
							JOINT LeftHand
							{
								OFFSET 0.249234 0.008986 -0.001171
								CHANNELS 3 Zrotation Yrotation Xrotation
								End Site
								{
									OFFSET 0.000000 0.000000 0.000000
								}
							}
						}
					}
				}
				JOINT RightShoulder
				{
					OFFSET -0.081759 0.118833 -0.038615
					CHANNELS 3 Zrotation Yrotation Xrotation
					JOINT RightArm
					{
						OFFSET -0.096012 0.032551 -0.009143
						CHANNELS 3 Zrotation Yrotation Xrotation
						JOINT RightForeArm
						{
							OFFSET -0.253742 -0.013329 -0.021401
							CHANNELS 3 Zrotation Yrotation Xrotation
							JOINT RightHand
							{
								OFFSET -0.255298 0.007772 -0.005559
								CHANNELS 3 Zrotation Yrotation Xrotation
								End Site
								{
									OFFSET 0.000000 0.000000 0.000000
								}
							}
						}
					}
				}
			}
		}
	}
}
MOTION
Frames: 16
Frame Time: 0.050000
-0.831864 0.944998 -1.003676 -3.875265 49.563304 2.211000 11.929143 -2.449245 -18.882939 -4.766440 -4.213524 30.484185 8.657009 16.353340 3.254422 0.000000 0.000000 0.000000 -5.273877 -2.855158 -26.593038 1.662291 -2.005328 16.076531 -6.426111 -9.080728 21.955429 0.000000 0.000000 0.000000 -4.519202 -3.114260 25.469293 4.810673 0.246063 -18.223162 -1.277316 1.284588 30.608093 -6.714163 9.209223 -34.354426 0.000000 0.000000 0.000000 -25.686196 -14.669800 -5.016033 -34.185341 -29.732753 4.825087 51.878289 -45.628843 -26.350877 0.000000 0.000000 0.000000 15.497646 14.199616 13.184584 43.187170 29.199316 3.237427 -42.187246 48.125828 -11.255329 0.000000 0.000000 0.000000 
-0.828525 0.945595 -1.029629 -4.991767 50.616958 2.518819 12.733081 -2.426867 -17.588744 -5.374294 -2.864457 25.244087 8.427774 15.043054 2.232451 0.000000 0.000000 0.000000 -4.858538 -3.202160 -28.227704 0.395001 -1.429064 15.100672 -5.371378 -7.144674 23.380559 0.000000 0.000000 0.000000 -6.650627 -2.676606 24.919944 5.683681 0.003739 -18.872503 -2.405262 -1.011116 30.572138 -6.406719 8.770388 -35.855330 0.000000 0.000000 0.000000 -23.857717 -16.191973 -3.070991 -30.326913 -33.734342 4.711229 49.200522 -40.671229 -22.034386 0.000000 0.000000 0.000000 14.199732 12.263643 11.337007 46.594197 25.674509 2.634292 -43.813608 49.857673 -11.869731 0.000000 0.000000 0.000000 
-0.826761 0.947855 -1.053814 -7.000523 51.707465 1.228149 14.213077 -2.690659 -18.810303 -7.007582 -2.336067 23.995878 8.938459 16.214966 2.990581 0.000000 0.000000 0.000000 -4.947852 -3.491937 -28.827500 0.061502 -1.200013 14.162026 -4.993965 -6.369201 24.900598 0.000000 0.000000 0.000000 -8.101011 -2.471133 24.600071 6.328016 -0.232603 -18.476909 -3.253562 -2.920715 29.971219 -5.916026 8.257916 -37.006427 0.000000 0.000000 0.000000 -22.338703 -17.008831 -1.661865 -26.850215 -36.753045 4.302730 47.362574 -37.831552 -19.482841 0.000000 0.000000 0.000000 11.581909 10.043209 8.825676 49.458069 22.847575 2.443696 -41.430646 52.176021 -11.183123 0.000000 0.000000 0.000000 
-0.825580 0.951349 -1.074739 -9.300656 51.693254 -0.662101 15.558227 -2.801500 -18.946197 -7.560066 -1.980244 22.669326 8.704272 15.944718 3.163561 0.000000 0.000000 0.000000 -4.763186 -3.525079 -29.270121 1.171266 -1.813361 15.650421 -5.208853 -6.803713 24.620583 0.000000 0.000000 0.000000 -10.026882 -2.396357 25.240062 6.766105 -0.386578 -18.839416 -3.674195 -3.962484 29.587046 -4.371904 7.447556 -37.612828 0.000000 0.000000 0.000000 -20.155857 -15.571684 -1.412976 -24.648822 -38.333755 3.759522 46.045143 -39.202010 -19.552365 0.000000 0.000000 0.000000 9.294051 9.436247 7.404708 51.782501 20.614928 2.338407 -40.122984 53.916807 -11.113340 0.000000 0.000000 0.000000 
-0.823754 0.956068 -1.092613 -11.877836 50.872424 -1.972178 16.565310 -2.859023 -19.184967 -6.655562 -1.688906 20.532567 7.920090 15.029541 3.521459 0.000000 0.000000 0.000000 -3.040143 -2.671870 -29.019255 2.479272 -2.747680 18.034769 -7.667401 -10.746504 22.925764 0.000000 0.000000 0.000000 -11.150669 -2.033938 24.120302 6.958867 -0.513907 -18.571817 -3.529381 -4.702617 29.046129 -4.740783 7.384105 -38.870465 0.000000 0.000000 0.000000 -18.223234 -14.490992 -1.102263 -25.131777 -39.337662 3.781467 46.981940 -41.120933 -20.991082 0.000000 0.000000 0.000000 7.251317 9.723990 6.662074 53.449926 19.193938 2.359676 -40.287254 53.890247 -11.296971 0.000000 0.000000 0.000000 
-0.820706 0.959195 -1.108909 -13.297377 49.998431 -1.894316 16.780134 -2.887394 -19.687931 -5.728853 -1.408250 18.184114 7.662671 14.851025 3.785087 0.000000 0.000000 0.000000 -2.282867 -2.079877 -28.107737 3.324924 -3.901609 21.457267 -8.073696 -12.295611 19.152119 0.000000 0.000000 0.000000 -11.474333 -1.668054 22.435234 6.947635 -0.533516 -18.509016 -4.014555 -5.354477 28.553848 -4.219573 6.976324 -40.536945 0.000000 0.000000 0.000000 -16.753565 -12.854849 -1.274313 -27.918845 -40.022801 4.376820 46.856146 -44.920250 -22.927393 0.000000 0.000000 0.000000 6.732766 10.127853 6.612900 54.084626 20.434080 3.215183 -43.219870 50.302710 -11.650502 0.000000 0.000000 0.000000 
-0.816029 0.960805 -1.125021 -13.624760 48.314689 -0.973434 17.170507 -2.843846 -19.690378 -5.137249 -1.096340 15.928710 6.904260 14.159289 4.334426 0.000000 0.000000 0.000000 -1.666654 -1.213763 -25.688756 3.643307 -4.500825 23.308401 -8.940723 -14.299999 18.221793 0.000000 0.000000 0.000000 -11.665863 -1.292867 20.794386 6.541670 -0.378423 -19.466265 -4.144259 -4.967498 29.145799 -3.154141 6.652894 -38.986019 0.000000 0.000000 0.000000 -15.564547 -12.244803 -1.184266 -30.927002 -39.654490 4.812608 46.409045 -47.853561 -24.338527 0.000000 0.000000 0.000000 6.667597 11.513693 7.290273 53.961185 23.702667 4.721418 -47.943517 43.115260 -10.873765 0.000000 0.000000 0.000000 
-0.809299 0.959647 -1.142418 -12.151729 46.288327 0.863286 15.752394 -2.633288 -20.000399 -5.160932 -0.928769 15.118719 7.362564 15.065477 4.352930 0.000000 0.000000 0.000000 -2.218378 -0.807274 -23.419027 3.677016 -4.369824 23.412500 -9.726324 -15.890145 18.883043 0.000000 0.000000 0.000000 -11.692236 -0.959175 19.488009 5.733422 -0.216815 -18.338214 -3.656611 -3.815140 27.444471 -2.211406 6.270857 -38.143861 0.000000 0.000000 0.000000 -18.134259 -12.976855 -1.394188 -31.338529 -36.422324 4.634259 45.721932 -51.254048 -25.400568 0.000000 0.000000 0.000000 6.698499 12.718519 7.828274 50.813989 26.177675 5.268307 -49.991902 35.611353 -8.912291 0.000000 0.000000 0.000000 
-0.801132 0.956533 -1.162454 -9.910977 43.506698 2.590041 13.273404 -2.421884 -20.515147 -4.867598 -1.009470 16.163861 7.282990 15.594537 5.045749 0.000000 0.000000 0.000000 -3.440431 -0.664046 -21.401442 2.543828 -2.867776 20.169661 -9.149845 -14.962690 19.797453 0.000000 0.000000 0.000000 -11.923809 -0.787144 19.775944 5.150875 -0.058537 -19.120707 -2.837793 -1.332640 27.016964 -0.675971 5.765176 -36.775041 0.000000 0.000000 0.000000 -20.300834 -13.663988 -1.820952 -31.911956 -34.171182 4.577580 41.956361 -52.087995 -23.546332 0.000000 0.000000 0.000000 5.978844 13.804695 8.122390 46.248933 29.091352 5.702411 -51.554830 27.270224 -5.962656 0.000000 0.000000 0.000000 
-0.792718 0.955132 -1.185284 -9.254292 40.890138 2.987359 11.852338 -2.399480 -21.689842 -5.885989 -0.996889 17.995479 8.092303 16.943851 4.646452 0.000000 0.000000 0.000000 -4.429070 -0.623244 -20.326316 1.343384 -1.664804 17.033291 -9.750754 -15.861887 21.572549 0.000000 0.000000 0.000000 -10.903677 -0.763657 19.967449 4.522298 0.098739 -19.865948 -1.812354 0.570710 27.461386 0.407939 5.416994 -37.073233 0.000000 0.000000 0.000000 -22.499349 -13.399063 -2.619127 -32.968822 -31.322636 4.324978 36.226261 -54.376683 -21.088196 0.000000 0.000000 0.000000 5.632745 16.195973 9.074908 39.941018 31.789845 5.374428 -51.438079 20.580400 -3.591227 0.000000 0.000000 0.000000 
-0.784651 0.954732 -1.209100 -8.151142 38.028519 3.783947 10.766827 -2.305983 -21.883438 -6.921724 -0.744558 18.219377 8.822294 18.452592 5.228794 0.000000 0.000000 0.000000 -5.754465 -0.780860 -20.205319 0.999473 -1.016843 14.203631 -9.820695 -16.044956 23.333677 0.000000 0.000000 0.000000 -9.866799 -0.694314 19.713718 4.507951 0.041868 -19.603541 -0.404651 3.404112 27.728641 0.940669 5.374236 -36.650447 0.000000 0.000000 0.000000 -24.808185 -13.461351 -3.682684 -33.485146 -28.033108 3.957977 33.122442 -54.771465 -19.424890 0.000000 0.000000 0.000000 5.435569 17.498535 9.674732 31.887129 33.373582 4.123765 -48.731155 14.503563 -1.366466 0.000000 0.000000 0.000000 
-0.776571 0.956150 -1.232046 -7.021419 36.016981 5.031955 9.431644 -2.440832 -23.092088 -7.417711 -0.626540 18.762563 9.020773 19.403298 6.475136 0.000000 0.000000 0.000000 -7.467905 -1.250441 -21.522926 0.554314 -0.652889 12.882904 -9.029261 -14.718181 26.262897 0.000000 0.000000 0.000000 -8.347230 -0.723447 19.398513 4.581692 -0.000625 -19.463697 0.870086 4.777870 27.914724 1.625618 5.148619 -35.857649 0.000000 0.000000 0.000000 -26.521254 -12.891236 -4.614197 -33.225479 -24.676293 3.279138 31.508153 -55.128195 -18.478550 0.000000 0.000000 0.000000 6.413299 18.363963 10.510621 23.913823 33.912985 2.391323 -44.724505 11.399722 -0.633467 0.000000 0.000000 0.000000 
-0.768350 0.957775 -1.252683 -5.666038 34.884646 5.796916 7.204016 -2.475257 -22.666467 -7.133614 -0.509165 17.446700 8.837738 19.066080 6.346469 0.000000 0.000000 0.000000 -8.966181 -1.663045 -21.980336 0.359982 -0.531193 12.655198 -8.849246 -14.542598 27.649006 0.000000 0.000000 0.000000 -7.172553 -0.925416 20.334753 5.026504 -0.175966 -18.732169 1.719682 5.993400 27.559764 1.699514 5.140540 -35.452835 0.000000 0.000000 0.000000 -27.413454 -11.706922 -5.732492 -33.347834 -21.762093 2.708231 32.297736 -55.754820 -19.151426 0.000000 0.000000 0.000000 6.736625 18.948768 10.962929 19.345613 33.711469 1.434016 -43.187195 9.501986 -0.177790 0.000000 0.000000 0.000000 
-0.760787 0.958868 -1.270336 -4.812804 33.136192 6.349201 5.786467 -2.424008 -22.060377 -6.514507 -0.389121 15.760708 8.585987 18.790579 6.739530 0.000000 0.000000 0.000000 -10.292215 -1.945688 -22.301833 0.667288 -0.512697 12.098346 -8.756040 -14.587169 29.959071 0.000000 0.000000 0.000000 -6.240055 -1.031685 20.735898 6.298227 -0.602018 -18.419617 2.747746 6.783582 27.567014 2.035694 4.952319 -35.444052 0.000000 0.000000 0.000000 -27.730725 -10.151202 -6.537602 -32.705283 -19.189624 1.962798 33.279219 -55.320231 -19.432183 0.000000 0.000000 0.000000 7.578106 19.637874 11.575578 14.545982 34.170137 0.515223 -40.907874 7.981333 -0.004237 0.000000 0.000000 0.000000 
-0.754175 0.959429 -1.284781 -3.781400 31.927709 7.156408 3.948696 -2.487433 -21.712527 -5.997727 -0.315865 14.381178 8.785195 19.128663 6.878533 0.000000 0.000000 0.000000 -11.499831 -2.258373 -22.735562 0.671557 -0.452032 11.801855 -8.389580 -14.328483 30.007802 0.000000 0.000000 0.000000 -4.800271 -1.257944 21.079722 7.138584 -0.917417 -17.869709 3.619384 7.454089 27.184696 2.133317 4.829542 -33.998880 0.000000 0.000000 0.000000 -28.045947 -8.860692 -7.300778 -31.943697 -17.895527 1.573202 34.444157 -53.161372 -19.112550 0.000000 0.000000 0.000000 8.894151 19.763469 12.207872 12.245777 34.799315 0.017687 -42.170922 7.030031 0.240300 0.000000 0.000000 0.000000 
-0.748300 0.958865 -1.296101 -2.986302 30.731353 7.535652 2.354981 -2.522339 -21.208598 -5.610707 -0.259029 13.331552 9.041430 19.511198 7.010933 0.000000 0.000000 0.000000 -12.852285 -2.531847 -22.487102 0.577689 -0.350913 11.088892 -7.481696 -13.301644 31.720216 0.000000 0.000000 0.000000 -3.606607 -1.467854 21.399054 8.400156 -1.365848 -17.547780 4.466210 8.014998 27.110879 2.822379 4.438318 -32.870081 0.000000 0.000000 0.000000 -27.699335 -7.466937 -7.857460 -31.264068 -17.179670 1.259577 35.015378 -50.711523 -18.417350 0.000000 0.000000 0.000000 11.140869 20.592528 13.593344 8.668992 34.743506 -0.860497 -42.209961 5.983055 0.344017 0.000000 0.000000 0.000000 
